<svg width="274" height="272" viewBox="0 0 274 272" fill="none" xmlns="http://www.w3.org/2000/svg">
<path d="M119 0.598948C88.6979 6.19791 69.901 14.1979 50.6979 29.5C18.3021 55.599 0.802059 93.599 0.697893 138C0.598935 172.401 12.8021 203.302 36.5989 228.901C56.3021 250.099 82.901 264.198 113 269.599C125.099 271.802 148 271.802 161 269.698C203.698 262.599 238.802 237.901 258.401 200.901C276.401 167.099 278.901 120.302 264.599 85.599C247 43.099 210.198 12.401 165 2.49999C157.698 0.901031 124.802 -0.500011 119 0.598948ZM184.302 28.901C196.302 34.6979 197.302 50.599 186 56.1979C182.901 57.8021 179.099 58 154.302 58C138.698 58 126 58.401 126 58.901C126 59.401 126.698 60.3021 127.5 61C128.302 61.6979 136.802 72 146.198 83.901C194.802 144.901 201.901 153.901 205 158.198C206.901 160.802 208.802 162.901 209.302 163C209.698 163 210 159.099 210 154.198C210 147.302 210.401 144.802 212 142.198C217.901 132.5 231.901 131.802 238.802 140.802L241.5 144.302L241.802 168.802L242.099 193.302L239.5 198.5C235.802 206.099 227.599 213.5 221.401 214.802C214.198 216.302 210.901 215.302 206.198 209.698C201.5 204.302 177.802 174.698 170.401 165C165.5 158.599 156.099 146.599 130 113.599C122.5 104.198 112.099 90.8021 106.698 83.8021C101.401 76.8021 93.401 66.6979 88.901 61.401C80.5 51.3021 79 48.6979 79 44.3021C79 40.1979 82.8021 33.1979 86.8021 30.1979L90.3021 27.5L120.401 27C174.302 26.099 178.802 26.1979 184.302 28.901ZM226.5 61.1979C239.901 73.8021 244.698 83.8021 242 93.5C239.901 101 232 107 224.5 107C221.302 107 214.698 102.698 212.302 99.099C210.099 95.8021 210 95 210 72.3021V48.901L214.099 51.1979C216.401 52.5 222 57 226.5 61.1979ZM61.1979 65.1979C63.8021 66.6979 69.1979 72.5 77.3021 82.901C84 91.401 93.3021 103.198 98 109.099C102.698 115 110.802 125.401 116.198 132.198C121.5 139 138.5 160.698 154.099 180.5C187.698 223.198 189 225.099 189 229.698C189 234.698 185.5 240.401 180.599 243.099L176.5 245.5L136.302 245.802C109 246 94.6979 245.698 91.901 245C86.1979 243.401 80.0989 237.599 79 232.5C77.3021 225.302 80.8021 217.802 87.3021 214.302C90 212.802 93.901 212.599 114.302 212.5C127.302 212.5 138 212.198 138 211.802C138 211.5 134.099 206.302 129.198 200.302C120 189 98.401 161.198 76.5 132.599L63.5 115.698L63.1979 169.901C63.0989 199.599 62.5989 224 62.1979 224C60.6979 224 46.5 211.198 42.0989 205.802C39.6979 202.901 36.0989 197.099 34.0989 193L30.5 185.5L30.5989 135.401C30.8021 79.401 30.8021 79.099 37.5989 71.099C44.5 63.099 53.401 60.901 61.1979 65.1979Z" fill="black"/>
</svg>
